<svg width="16" height="16" viewBox="0 0 16 16" fill="none" xmlns="http://www.w3.org/2000/svg">
<path fill-rule="evenodd" clip-rule="evenodd" d="M7.99996 14.665C11.6809 14.665 14.665 11.6809 14.665 7.99996C14.665 4.31898 11.6809 1.33496 7.99996 1.33496C4.31898 1.33496 1.33496 4.31898 1.33496 7.99996C1.33496 11.6809 4.31898 14.665 7.99996 14.665ZM11.3328 5.98328C11.3328 5.87271 11.2889 5.76666 11.2108 5.68842C11.1325 5.61028 11.0264 5.5664 10.9159 5.5664C10.8053 5.5664 10.6993 5.61028 10.621 5.68842L6.88242 9.42704L5.36917 7.91379C5.29007 7.84009 5.18545 7.79996 5.07736 7.80187C4.96926 7.80377 4.86612 7.84756 4.78967 7.92401C4.71322 8.00046 4.66943 8.1036 4.66752 8.2117C4.66562 8.3198 4.70574 8.42441 4.77945 8.50351L6.58756 10.3116C6.66579 10.3897 6.77185 10.4336 6.88242 10.4336C6.99299 10.4336 7.09904 10.3897 7.17728 10.3116L11.2108 6.27815C11.2889 6.19991 11.3328 6.09386 11.3328 5.98328Z" fill="black"/>
</svg>
