<svg width="16" height="16" viewBox="0 0 16 16" fill="none" xmlns="http://www.w3.org/2000/svg">
<path fill-rule="evenodd" clip-rule="evenodd" d="M14.665 7.99996C14.665 11.6809 11.6809 14.665 7.99996 14.665C4.31898 14.665 1.33496 11.6809 1.33496 7.99996C1.33496 4.31898 4.31898 1.33496 7.99996 1.33496C11.6809 1.33496 14.665 4.31898 14.665 7.99996ZM8.00016 6.66675C8.36835 6.66675 8.66683 6.96522 8.66683 7.33341V11.3334C8.66683 11.7016 8.36835 12.0001 8.00016 12.0001C7.63197 12.0001 7.3335 11.7016 7.3335 11.3334V7.33341C7.3335 6.96522 7.63197 6.66675 8.00016 6.66675ZM8.66683 4.66691C8.66683 4.29872 8.36835 4.00024 8.00016 4.00024C7.63197 4.00024 7.3335 4.29872 7.3335 4.66691C7.3335 5.0351 7.63197 5.33358 8.00016 5.33358C8.36835 5.33358 8.66683 5.0351 8.66683 4.66691Z" fill="black"/>
</svg>
