<svg width="16" height="16" viewBox="0 0 16 16" fill="none" xmlns="http://www.w3.org/2000/svg">
<path fill-rule="evenodd" clip-rule="evenodd" d="M7.99996 14.665C11.6809 14.665 14.665 11.6809 14.665 7.99996C14.665 4.31898 11.6809 1.33496 7.99996 1.33496C4.31898 1.33496 1.33496 4.31898 1.33496 7.99996C1.33496 11.6809 4.31898 14.665 7.99996 14.665ZM8.66488 5.33317C8.66488 4.96498 8.3664 4.6665 7.99821 4.6665C7.63002 4.6665 7.33154 4.96498 7.33154 5.33317V7.99984C7.33154 8.36803 7.63002 8.6665 7.99821 8.6665C8.3664 8.6665 8.66488 8.36803 8.66488 7.99984V5.33317ZM7.99821 9.99984C7.63002 9.99984 7.33154 10.2983 7.33154 10.6665C7.33154 11.0347 7.63002 11.3332 7.99821 11.3332H8.00488C8.37307 11.3332 8.67154 11.0347 8.67154 10.6665C8.67154 10.2983 8.37307 9.99984 8.00488 9.99984H7.99821Z" fill="black"/>
</svg>
