<svg width="24" height="24" viewBox="0 0 24 24" fill="none" xmlns="http://www.w3.org/2000/svg">
<circle cx="12" cy="12" r="11.998" fill="#FFD6DD"/>
<path fill-rule="evenodd" clip-rule="evenodd" d="M11.9999 21.9974C17.5214 21.9974 21.9974 17.5214 21.9974 11.9999C21.9974 6.47847 17.5214 2.00244 11.9999 2.00244C6.47847 2.00244 2.00244 6.47847 2.00244 11.9999C2.00244 17.5214 6.47847 21.9974 11.9999 21.9974ZM12.9973 7.99961C12.9973 7.44732 12.5496 6.99961 11.9973 6.99961C11.445 6.99961 10.9973 7.44732 10.9973 7.99961V11.9996C10.9973 12.5519 11.445 12.9996 11.9973 12.9996C12.5496 12.9996 12.9973 12.5519 12.9973 11.9996V7.99961ZM11.9973 14.9996C11.445 14.9996 10.9973 15.4473 10.9973 15.9996C10.9973 16.5519 11.445 16.9996 11.9973 16.9996H12.0073C12.5596 16.9996 13.0073 16.5519 13.0073 15.9996C13.0073 15.4473 12.5596 14.9996 12.0073 14.9996H11.9973Z" fill="#FC3057"/>
</svg>
