<svg width="24" height="24" viewBox="0 0 24 24" fill="none" xmlns="http://www.w3.org/2000/svg">
<g clip-path="url(#clip0_879_2872)">
<circle cx="12" cy="12" r="11.998" fill="#E0FFDF"/>
<path fill-rule="evenodd" clip-rule="evenodd" d="M12 21.9974C17.5215 21.9974 21.9975 17.5214 21.9975 11.9999C21.9975 6.47847 17.5215 2.00244 12 2.00244C6.47854 2.00244 2.0025 6.47847 2.0025 11.9999C2.0025 17.5214 6.47854 21.9974 12 21.9974ZM16.9992 8.97493C16.9992 8.80907 16.9334 8.64998 16.8162 8.53264C16.6989 8.41543 16.5397 8.34959 16.3739 8.34959C16.208 8.34959 16.0489 8.41543 15.9316 8.53264L10.3237 14.1406L8.05381 11.8707C7.93516 11.7601 7.77824 11.6999 7.6161 11.7028C7.45395 11.7057 7.29924 11.7713 7.18457 11.886C7.06989 12.0007 7.00421 12.1554 7.00134 12.3175C6.99849 12.4797 7.05867 12.6366 7.16923 12.7553L9.8814 15.4674C9.99875 15.5846 10.1578 15.6504 10.3237 15.6504C10.4895 15.6504 10.6486 15.5846 10.766 15.4674L16.8162 9.41722C16.9334 9.29986 16.9992 9.14079 16.9992 8.97493Z" fill="#6DE36B"/>
</g>
<defs>
<clipPath id="clip0_879_2872">
<rect width="24" height="24" fill="white"/>
</clipPath>
</defs>
</svg>
