<svg width="24" height="24" viewBox="0 0 24 24" fill="none" xmlns="http://www.w3.org/2000/svg">
<g clip-path="url(#clip0_879_2892)">
<circle cx="11.998" cy="11.998" r="11.998" fill="#FFEEDE"/>
<path fill-rule="evenodd" clip-rule="evenodd" d="M22 12C22 17.5228 17.5228 22 12 22C6.47715 22 2 17.5228 2 12C2 6.47715 6.47715 2 12 2C17.5228 2 22 6.47715 22 12ZM11.9982 10.5007C12.5504 10.5007 12.998 10.8924 12.998 11.3755V16.6238C12.998 17.1069 12.5504 17.4985 11.9982 17.4985C11.446 17.4985 10.9983 17.1069 10.9983 16.6238V11.3755C10.9983 10.8924 11.446 10.5007 11.9982 10.5007ZM12.9977 7.50114C12.9977 6.94903 12.5501 6.50146 11.998 6.50146C11.4459 6.50146 10.9983 6.94903 10.9983 7.50114C10.9983 8.05324 11.4459 8.50081 11.998 8.50081C12.5501 8.50081 12.9977 8.05324 12.9977 7.50114Z" fill="#FDBF46"/>
</g>
<defs>
<clipPath id="clip0_879_2892">
<rect width="23.9961" height="23.9961" fill="white"/>
</clipPath>
</defs>
</svg>
