<svg width="256" height="256" viewBox="0 0 256 256" fill="none" xmlns="http://www.w3.org/2000/svg">
<g clip-path="url(#clip0_1136_6028)">
<rect width="256" height="256" rx="64" fill="url(#paint0_linear_1136_6028)"/>
<path d="M2.53891 168.552C5.98887 176.59 16.0774 210.274 14.9598 210.534C13.8422 210.793 220.46 219.517 227.127 235.35C249.293 235.35 288.3 202.3 237.5 167.5C186.7 132.7 -0.911054 160.514 2.53891 168.552Z" fill="url(#paint1_linear_1136_6028)"/>
<g filter="url(#filter0_f_1136_6028)">
<path d="M174.086 244.562C197.204 228.799 244.981 214.444 252.897 192.862" stroke="url(#paint2_linear_1136_6028)" stroke-width="2.20833" style="mix-blend-mode:overlay"/>
</g>
<g filter="url(#filter1_f_1136_6028)">
<path d="M12.8928 172.075C58.294 169.635 19.1416 204.002 69.0338 218.55" stroke="url(#paint3_linear_1136_6028)" stroke-width="2.5" style="mix-blend-mode:overlay"/>
</g>
<g filter="url(#filter2_b_1136_6028)">
<rect x="108.517" y="49.6597" width="143" height="180" rx="16" transform="rotate(4.24786 108.517 49.6597)" fill="#D9F3CD"/>
<g clip-path="url(#clip1_1136_6028)">
<g filter="url(#filter3_d_1136_6028)">
<path d="M165.204 97.2645C170.947 96.0989 176.874 96.1904 182.578 97.5326L182.918 97.6128C189.676 99.2031 195.937 102.437 201.147 107.026L201.552 107.384C205.071 110.484 208.076 114.123 210.454 118.165L211.835 120.511C214.363 124.806 216.353 129.397 217.76 134.178L218.521 136.764C220.487 143.444 220.989 150.47 219.994 157.362L219.757 158.997C218.992 164.293 217.178 169.384 214.421 173.971L214.041 174.602C210.794 180.005 206.234 184.498 200.783 187.664V187.664C195.483 190.743 189.506 192.47 183.379 192.694L178.907 192.858C173.692 193.048 168.476 192.499 163.415 191.227L157.927 189.848C154.265 188.927 150.722 187.581 147.371 185.839L143.822 183.992C138.532 181.24 134.067 177.133 130.884 172.091V172.091C127.968 167.472 126.219 162.213 125.787 156.767L125.557 153.862C125.113 148.252 125.714 142.609 127.328 137.218L127.999 134.98C129.963 128.423 133.072 122.266 137.183 116.794L138.875 114.541C140.766 112.024 142.909 109.706 145.27 107.623L146.423 106.606C151.757 101.901 158.233 98.6793 165.204 97.2645V97.2645Z" fill="url(#paint4_linear_1136_6028)"/>
</g>
<path d="M154.414 161.166L190.274 165.169" stroke="#406512" stroke-width="2.67097" stroke-linecap="round"/>
<g filter="url(#filter4_f_1136_6028)">
<path d="M213.991 131.604C205.864 111.514 188.546 96.9538 168.185 98.397" stroke="url(#paint5_linear_1136_6028)" stroke-width="2.00323" style="mix-blend-mode:overlay"/>
</g>
<g filter="url(#filter5_f_1136_6028)">
<path d="M127.922 162.685C134.605 177.74 153.952 190.006 180.053 191.408" stroke="url(#paint6_linear_1136_6028)" stroke-width="2.00323" style="mix-blend-mode:overlay"/>
</g>
<g opacity="0.85">
<g filter="url(#filter6_d_1136_6028)">
<path d="M175.162 116.623C175.895 118.163 175.343 119.981 174.353 121.369C168.592 129.442 153.058 131.317 154.044 118.045C154.609 110.43 172.062 110.111 175.162 116.623Z" fill="#DCFCDC"/>
</g>
<g filter="url(#filter7_d_1136_6028)">
<path d="M175.697 116.53C174.751 117.942 175.027 119.816 175.796 121.332C180.281 130.17 195.326 134.32 196.312 121.045C196.878 113.428 179.707 110.539 175.697 116.53Z" fill="#DCFCDC"/>
</g>
<ellipse cx="163.505" cy="118.722" rx="3.78328" ry="4.2562" transform="rotate(-28.3178 163.505 118.722)" fill="#0D1C13"/>
<g filter="url(#filter8_d_1136_6028)">
<path d="M167.235 138.695C165.813 136.454 155.162 137.798 159.242 133.081C165.066 126.346 169.93 124.85 174.51 125.061C179.112 125.273 183.429 127.225 188.98 135.29C192.096 139.816 180.406 138.473 179.521 139.608C176.391 143.623 169.798 142.736 167.235 138.695Z" fill="url(#paint7_linear_1136_6028)" shape-rendering="crispEdges"/>
</g>
<ellipse cx="186.195" cy="119.738" rx="3.78328" ry="4.2562" transform="rotate(-28.3178 186.195 119.738)" fill="#0D1C13"/>
</g>
</g>
<rect x="110.825" y="52.338" width="138" height="175" rx="13.5" transform="rotate(4.24786 110.825 52.338)" stroke="url(#paint8_linear_1136_6028)" stroke-width="5"/>
</g>
<g filter="url(#filter9_b_1136_6028)">
<rect x="2.49194" y="60.2095" width="143" height="180" rx="16" transform="rotate(-7.55818 2.49194 60.2095)" fill="#F3F3CD"/>
<g filter="url(#filter10_d_1136_6028)">
<path d="M52.9027 85.2703C49.0127 86.0799 53.3267 96.9913 54.7367 102.623L68.5539 95.0053C65.8171 94.8227 56.7928 84.4608 52.9027 85.2703Z" fill="#E79B26"/>
<path d="M50.119 153.261C55.317 161.673 44.5579 182.52 56.737 191.866C68.9161 201.212 118.271 199.855 129.879 185.234C141.486 170.612 136.018 160.575 131.697 147.114C127.45 133.886 113.057 100.161 87.7319 94.4424C79.427 92.5672 64.5353 91.0472 56.737 99.831C30.3035 129.605 43.6216 142.747 50.119 153.261Z" fill="url(#paint9_linear_1136_6028)"/>
<g filter="url(#filter11_d_1136_6028)">
<path d="M44.2164 127.098C41.8303 136.735 51.9108 153.606 59.314 157.224C68.4858 161.706 85.956 156.983 92.6674 148.464C104.409 133.562 109.653 109.498 100.009 107.201C90.3179 104.894 84.0831 97.3078 80.1819 97.0677C66.7695 96.2423 64.9873 97.9823 61.0774 100.501C52.5911 105.968 47.3034 114.632 44.2164 127.098Z" fill="url(#paint10_linear_1136_6028)"/>
</g>
<g filter="url(#filter12_f_1136_6028)">
<path d="M128.149 144.288C119.861 117.923 114.646 115.885 105.559 105.372" stroke="url(#paint11_linear_1136_6028)" stroke-width="2.00323" style="mix-blend-mode:overlay"/>
</g>
<g opacity="0.9">
<g opacity="0.9">
<g filter="url(#filter13_d_1136_6028)">
<path d="M86.168 114.664C86.9375 117.832 84.1854 121.22 80.0209 122.231C75.8565 123.243 74.173 120.932 73.4035 117.765C73.3804 114.868 73.9873 113.643 77.3377 111.186C80.8418 109.307 85.3985 111.496 86.168 114.664Z" fill="white"/>
</g>
<ellipse cx="81.3376" cy="116.252" rx="5.23409" ry="5.50015" transform="rotate(-13.654 81.3376 116.252)" fill="#161714"/>
<circle cx="78.3944" cy="112.916" r="1.27578" transform="rotate(-13.654 78.3944 112.916)" fill="white"/>
</g>
<g opacity="0.9">
<g filter="url(#filter14_d_1136_6028)">
<path d="M59.6625 116.784C60.3179 119.482 58.5063 122.238 55.6163 122.94C52.7262 123.642 50.2118 121.68 50.1441 119.096C50.0778 116.556 50.8924 113.741 53.2429 113.17C56.1329 112.468 59.0071 114.086 59.6625 116.784Z" fill="white"/>
</g>
<ellipse cx="55.6882" cy="117.865" rx="4.11673" ry="4.79626" transform="rotate(-13.654 55.6882 117.865)" fill="#161714"/>
<circle cx="52.8864" cy="114.779" r="0.725824" transform="rotate(-13.654 52.8864 114.779)" fill="white"/>
</g>
<g opacity="0.9" filter="url(#filter15_d_1136_6028)">
<path d="M56.915 138.47C64.0216 137.416 68.2738 125.86 57.2444 127.284C44.6042 128.917 52.4564 139.131 56.915 138.47Z" fill="#141611"/>
</g>
<path opacity="0.9" d="M54.0815 144.226C57.7895 143.325 60.5802 142.959 68.2275 142.821C71.1639 142.768 74.8916 141.916 76.8534 141.439" stroke="black" stroke-width="1.16085" stroke-linecap="round"/>
</g>
<g filter="url(#filter16_d_1136_6028)">
<path d="M96.9664 77.6384C93.841 77.2481 88.0483 88.8548 82.401 93.7862C76.7536 98.7176 107.417 109.303 105.874 105.89C104.331 102.478 104.611 78.593 96.9664 77.6384Z" fill="#E29726"/>
</g>
<path d="M95.2799 85.7991C93.4101 85.5656 89.9447 92.5092 86.5662 95.4594C83.1877 98.4096 101.532 104.742 100.609 102.701C99.6858 100.659 99.8529 86.3702 95.2799 85.7991Z" fill="#AC500D"/>
<g filter="url(#filter17_f_1136_6028)">
<path d="M64.9893 99.5778C72.2726 98.6209 79.6092 96.3881 86.0599 102.537C92.5106 108.687 105.275 108.825 102.735 116.537" stroke="url(#paint12_linear_1136_6028)" stroke-width="2.00323" style="mix-blend-mode:overlay"/>
</g>
<g filter="url(#filter18_f_1136_6028)">
<path d="M85.261 94.0602C95.0057 78.5322 102.088 72.2263 103.016 101.888" stroke="url(#paint13_linear_1136_6028)" stroke-width="2.00323" style="mix-blend-mode:overlay"/>
</g>
<g filter="url(#filter19_f_1136_6028)">
<path d="M54.5097 97.2649C51.2378 87.2462 50.7426 81.7444 62.2049 91.9187" stroke="url(#paint14_linear_1136_6028)" stroke-width="2.00323" style="mix-blend-mode:overlay"/>
</g>
</g>
<rect x="5.29906" y="62.3589" width="138" height="175" rx="13.5" transform="rotate(-7.55818 5.29906 62.3589)" stroke="url(#paint15_linear_1136_6028)" stroke-width="5"/>
</g>
<g filter="url(#filter20_d_1136_6028)">
<path d="M19.6973 169.006C13.4319 165.362 15.0987 163.944 15.8107 162.961C10.276 163.673 2.3313 166.441 2.50369 168.325C2.45647 168.201 2.41677 168.059 2.37845 167.898C2.36954 167.859 2.36057 167.82 2.35155 167.781C2.3605 167.821 2.36944 167.86 2.37845 167.898C4.78915 178.428 3.53699 182.096 2.50382 188.058C1.26556 195.204 2.07395 199.917 8.32691 205.909C19.8165 216.917 53.7819 220.085 74.4941 218.514C48.7588 212.902 44.4809 199.519 42.0741 191.99C41.9938 191.739 41.9156 191.494 41.8387 191.257C41.0186 188.72 40.4926 186.436 40.0226 184.395C38.3648 177.196 37.4039 173.024 26.689 171.496C23.2157 171 21.5098 170.06 19.6973 169.006Z" fill="url(#paint16_linear_1136_6028)"/>
</g>
<g filter="url(#filter21_f_1136_6028)">
<path d="M14.0366 170.194C57.4139 170.194 23.8041 210.654 65.9058 216.834" stroke="url(#paint17_linear_1136_6028)" stroke-width="2" style="mix-blend-mode:overlay"/>
</g>
<g filter="url(#filter22_d_1136_6028)">
<path fill-rule="evenodd" clip-rule="evenodd" d="M234.068 193.892C243.209 189.309 246.128 180.384 242.968 171.509C249.368 175.781 252.176 179.888 256.11 184.386C256.222 184.514 256.334 184.641 256.444 184.767C286.095 141.289 267.841 221.256 239.756 236.657L224.591 258.044H152.656C158.839 245.554 166.09 226.157 185.828 216.564C200.621 209.375 222.61 199.636 234.068 193.892Z" fill="url(#paint18_linear_1136_6028)"/>
</g>
<g filter="url(#filter23_f_1136_6028)">
<path d="M176.359 241.978C197.531 226.134 257.123 213.234 245.505 181.998" stroke="url(#paint19_linear_1136_6028)" stroke-width="2.5" style="mix-blend-mode:overlay"/>
</g>
<g filter="url(#filter24_f_1136_6028)">
<path d="M13.6176 164.604C13.6176 164.604 14.7578 166.701 15.8919 167.694C17.1937 168.833 19.7564 169.487 19.7564 169.487" stroke="black" stroke-opacity="0.5" stroke-width="1.5"/>
</g>
<g filter="url(#filter25_f_1136_6028)">
<path d="M11.075 165.945L12.7095 164.223" stroke="black" stroke-opacity="0.5" stroke-width="2"/>
</g>
<path d="M150.097 263.248C156.563 251.06 157.698 245.954 165.489 234.305L147.864 230.447L119.269 250.266C121.294 257.07 143.678 275.348 150.097 263.248Z" fill="#A4C5F7"/>
</g>
<defs>
<filter id="filter0_f_1136_6028" x="164.631" y="183.648" width="98.1362" height="70.6591" filterUnits="userSpaceOnUse" color-interpolation-filters="sRGB">
<feFlood flood-opacity="0" result="BackgroundImageFix"/>
<feBlend mode="normal" in="SourceGraphic" in2="BackgroundImageFix" result="shape"/>
<feGaussianBlur stdDeviation="4.41667" result="effect1_foregroundBlur_1136_6028"/>
</filter>
<filter id="filter1_f_1136_6028" x="3.99235" y="161.868" width="74.2248" height="66.7153" filterUnits="userSpaceOnUse" color-interpolation-filters="sRGB">
<feFlood flood-opacity="0" result="BackgroundImageFix"/>
<feBlend mode="normal" in="SourceGraphic" in2="BackgroundImageFix" result="shape"/>
<feGaussianBlur stdDeviation="4.41667" result="effect1_foregroundBlur_1136_6028"/>
</filter>
<filter id="filter2_b_1136_6028" x="78.3843" y="32.8597" width="189.54" height="223.698" filterUnits="userSpaceOnUse" color-interpolation-filters="sRGB">
<feFlood flood-opacity="0" result="BackgroundImageFix"/>
<feGaussianBlur in="BackgroundImageFix" stdDeviation="8.4"/>
<feComposite in2="SourceAlpha" operator="in" result="effect1_backgroundBlur_1136_6028"/>
<feBlend mode="normal" in="SourceGraphic" in2="effect1_backgroundBlur_1136_6028" result="shape"/>
</filter>
<filter id="filter3_d_1136_6028" x="122.744" y="95.1179" width="100.418" height="101.783" filterUnits="userSpaceOnUse" color-interpolation-filters="sRGB">
<feFlood flood-opacity="0" result="BackgroundImageFix"/>
<feColorMatrix in="SourceAlpha" type="matrix" values="0 0 0 0 0 0 0 0 0 0 0 0 0 0 0 0 0 0 127 0" result="hardAlpha"/>
<feOffset dy="1.33548"/>
<feGaussianBlur stdDeviation="1.33548"/>
<feComposite in2="hardAlpha" operator="out"/>
<feColorMatrix type="matrix" values="0 0 0 0 0.0611875 0 0 0 0 0.264688 0 0 0 0 0.0103125 0 0 0 0.25 0"/>
<feBlend mode="normal" in2="BackgroundImageFix" result="effect1_dropShadow_1136_6028"/>
<feBlend mode="normal" in="SourceGraphic" in2="effect1_dropShadow_1136_6028" result="shape"/>
</filter>
<filter id="filter4_f_1136_6028" x="162.216" y="91.3982" width="58.602" height="46.4799" filterUnits="userSpaceOnUse" color-interpolation-filters="sRGB">
<feFlood flood-opacity="0" result="BackgroundImageFix"/>
<feBlend mode="normal" in="SourceGraphic" in2="BackgroundImageFix" result="shape"/>
<feGaussianBlur stdDeviation="2.94919" result="effect1_foregroundBlur_1136_6028"/>
</filter>
<filter id="filter5_f_1136_6028" x="121.108" y="156.38" width="64.8966" height="41.9257" filterUnits="userSpaceOnUse" color-interpolation-filters="sRGB">
<feFlood flood-opacity="0" result="BackgroundImageFix"/>
<feBlend mode="normal" in="SourceGraphic" in2="BackgroundImageFix" result="shape"/>
<feGaussianBlur stdDeviation="2.94919" result="effect1_foregroundBlur_1136_6028"/>
</filter>
<filter id="filter6_d_1136_6028" x="151.328" y="110.013" width="26.8417" height="21.0463" filterUnits="userSpaceOnUse" color-interpolation-filters="sRGB">
<feFlood flood-opacity="0" result="BackgroundImageFix"/>
<feColorMatrix in="SourceAlpha" type="matrix" values="0 0 0 0 0 0 0 0 0 0 0 0 0 0 0 0 0 0 127 0" result="hardAlpha"/>
<feOffset dy="0.667742"/>
<feGaussianBlur stdDeviation="1.33548"/>
<feComposite in2="hardAlpha" operator="out"/>
<feColorMatrix type="matrix" values="0 0 0 0 0 0 0 0 0 0 0 0 0 0 0 0 0 0 0.25 0"/>
<feBlend mode="normal" in2="BackgroundImageFix" result="effect1_dropShadow_1136_6028"/>
<feBlend mode="normal" in="SourceGraphic" in2="effect1_dropShadow_1136_6028" result="shape"/>
</filter>
<filter id="filter7_d_1136_6028" x="172.425" y="111.313" width="26.5722" height="21.5687" filterUnits="userSpaceOnUse" color-interpolation-filters="sRGB">
<feFlood flood-opacity="0" result="BackgroundImageFix"/>
<feColorMatrix in="SourceAlpha" type="matrix" values="0 0 0 0 0 0 0 0 0 0 0 0 0 0 0 0 0 0 127 0" result="hardAlpha"/>
<feOffset dy="0.667742"/>
<feGaussianBlur stdDeviation="1.33548"/>
<feComposite in2="hardAlpha" operator="out"/>
<feColorMatrix type="matrix" values="0 0 0 0 0 0 0 0 0 0 0 0 0 0 0 0 0 0 0.25 0"/>
<feBlend mode="normal" in2="BackgroundImageFix" result="effect1_dropShadow_1136_6028"/>
<feBlend mode="normal" in="SourceGraphic" in2="effect1_dropShadow_1136_6028" result="shape"/>
</filter>
<filter id="filter8_d_1136_6028" x="157.649" y="125.042" width="32.5257" height="18.503" filterUnits="userSpaceOnUse" color-interpolation-filters="sRGB">
<feFlood flood-opacity="0" result="BackgroundImageFix"/>
<feColorMatrix in="SourceAlpha" type="matrix" values="0 0 0 0 0 0 0 0 0 0 0 0 0 0 0 0 0 0 127 0" result="hardAlpha"/>
<feOffset dy="0.667742"/>
<feGaussianBlur stdDeviation="0.333871"/>
<feComposite in2="hardAlpha" operator="out"/>
<feColorMatrix type="matrix" values="0 0 0 0 0 0 0 0 0 0 0 0 0 0 0 0 0 0 0.25 0"/>
<feBlend mode="normal" in2="BackgroundImageFix" result="effect1_dropShadow_1136_6028"/>
<feBlend mode="normal" in="SourceGraphic" in2="effect1_dropShadow_1136_6028" result="shape"/>
</filter>
<filter id="filter9_b_1136_6028" x="-14.3081" y="24.6004" width="199.034" height="230.845" filterUnits="userSpaceOnUse" color-interpolation-filters="sRGB">
<feFlood flood-opacity="0" result="BackgroundImageFix"/>
<feGaussianBlur in="BackgroundImageFix" stdDeviation="8.4"/>
<feComposite in2="SourceAlpha" operator="in" result="effect1_backgroundBlur_1136_6028"/>
<feBlend mode="normal" in="SourceGraphic" in2="effect1_backgroundBlur_1136_6028" result="shape"/>
</filter>
<filter id="filter10_d_1136_6028" x="20.5" y="69.4033" width="123.743" height="144.239" filterUnits="userSpaceOnUse" color-interpolation-filters="sRGB">
<feFlood flood-opacity="0" result="BackgroundImageFix"/>
<feColorMatrix in="SourceAlpha" type="matrix" values="0 0 0 0 0 0 0 0 0 0 0 0 0 0 0 0 0 0 127 0" result="hardAlpha"/>
<feOffset dy="1.5"/>
<feGaussianBlur stdDeviation="1.25"/>
<feComposite in2="hardAlpha" operator="out"/>
<feColorMatrix type="matrix" values="0 0 0 0 0.473958 0 0 0 0 0.294369 0 0 0 0 0.0260417 0 0 0 0.25 0"/>
<feBlend mode="normal" in2="BackgroundImageFix" result="effect1_dropShadow_1136_6028"/>
<feBlend mode="normal" in="SourceGraphic" in2="effect1_dropShadow_1136_6028" result="shape"/>
</filter>
<filter id="filter11_d_1136_6028" x="36.8943" y="90.1854" width="75.0987" height="76.0186" filterUnits="userSpaceOnUse" color-interpolation-filters="sRGB">
<feFlood flood-opacity="0" result="BackgroundImageFix"/>
<feColorMatrix in="SourceAlpha" type="matrix" values="0 0 0 0 0 0 0 0 0 0 0 0 0 0 0 0 0 0 127 0" result="hardAlpha"/>
<feOffset dy="0.290214"/>
<feGaussianBlur stdDeviation="3.48256"/>
<feComposite in2="hardAlpha" operator="out"/>
<feColorMatrix type="matrix" values="0 0 0 0 0 0 0 0 0 0 0 0 0 0 0 0 0 0 0.05 0"/>
<feBlend mode="normal" in2="BackgroundImageFix" result="effect1_dropShadow_1136_6028"/>
<feBlend mode="normal" in="SourceGraphic" in2="effect1_dropShadow_1136_6028" result="shape"/>
</filter>
<filter id="filter12_f_1136_6028" x="98.9029" y="98.8191" width="36.1005" height="51.6679" filterUnits="userSpaceOnUse" color-interpolation-filters="sRGB">
<feFlood flood-opacity="0" result="BackgroundImageFix"/>
<feBlend mode="normal" in="SourceGraphic" in2="BackgroundImageFix" result="shape"/>
<feGaussianBlur stdDeviation="2.94919" result="effect1_foregroundBlur_1136_6028"/>
</filter>
<filter id="filter13_d_1136_6028" x="71.9931" y="108.376" width="18.5333" height="17.6199" filterUnits="userSpaceOnUse" color-interpolation-filters="sRGB">
<feFlood flood-opacity="0" result="BackgroundImageFix"/>
<feColorMatrix in="SourceAlpha" type="matrix" values="0 0 0 0 0 0 0 0 0 0 0 0 0 0 0 0 0 0 127 0" result="hardAlpha"/>
<feOffset dx="1.40975" dy="0.704873"/>
<feGaussianBlur stdDeviation="1.40975"/>
<feComposite in2="hardAlpha" operator="out"/>
<feColorMatrix type="matrix" values="0 0 0 0 0 0 0 0 0 0 0 0 0 0 0 0 0 0 0.25 0"/>
<feBlend mode="normal" in2="BackgroundImageFix" result="effect1_dropShadow_1136_6028"/>
<feBlend mode="normal" in="SourceGraphic" in2="effect1_dropShadow_1136_6028" result="shape"/>
</filter>
<filter id="filter14_d_1136_6028" x="48.8029" y="111" width="15.0063" height="15.4282" filterUnits="userSpaceOnUse" color-interpolation-filters="sRGB">
<feFlood flood-opacity="0" result="BackgroundImageFix"/>
<feColorMatrix in="SourceAlpha" type="matrix" values="0 0 0 0 0 0 0 0 0 0 0 0 0 0 0 0 0 0 127 0" result="hardAlpha"/>
<feOffset dx="1.33752" dy="0.66876"/>
<feGaussianBlur stdDeviation="1.33752"/>
<feComposite in2="hardAlpha" operator="out"/>
<feColorMatrix type="matrix" values="0 0 0 0 0 0 0 0 0 0 0 0 0 0 0 0 0 0 0.25 0"/>
<feBlend mode="normal" in2="BackgroundImageFix" result="effect1_dropShadow_1136_6028"/>
<feBlend mode="normal" in="SourceGraphic" in2="effect1_dropShadow_1136_6028" result="shape"/>
</filter>
<filter id="filter15_d_1136_6028" x="48.0618" y="125.422" width="18.2462" height="15.9811" filterUnits="userSpaceOnUse" color-interpolation-filters="sRGB">
<feFlood flood-opacity="0" result="BackgroundImageFix"/>
<feColorMatrix in="SourceAlpha" type="matrix" values="0 0 0 0 0 0 0 0 0 0 0 0 0 0 0 0 0 0 127 0" result="hardAlpha"/>
<feOffset dy="0.580427"/>
<feGaussianBlur stdDeviation="1.16085"/>
<feComposite in2="hardAlpha" operator="out"/>
<feColorMatrix type="matrix" values="0 0 0 0 0 0 0 0 0 0 0 0 0 0 0 0 0 0 0.25 0"/>
<feBlend mode="normal" in2="BackgroundImageFix" result="effect1_dropShadow_1136_6028"/>
<feBlend mode="normal" in="SourceGraphic" in2="effect1_dropShadow_1136_6028" result="shape"/>
</filter>
<filter id="filter16_d_1136_6028" x="74.7407" y="71.244" width="38.1551" height="42.857" filterUnits="userSpaceOnUse" color-interpolation-filters="sRGB">
<feFlood flood-opacity="0" result="BackgroundImageFix"/>
<feColorMatrix in="SourceAlpha" type="matrix" values="0 0 0 0 0 0 0 0 0 0 0 0 0 0 0 0 0 0 127 0" result="hardAlpha"/>
<feOffset dy="0.580427"/>
<feGaussianBlur stdDeviation="3.48256"/>
<feComposite in2="hardAlpha" operator="out"/>
<feColorMatrix type="matrix" values="0 0 0 0 0 0 0 0 0 0 0 0 0 0 0 0 0 0 0.05 0"/>
<feBlend mode="normal" in2="BackgroundImageFix" result="effect1_dropShadow_1136_6028"/>
<feBlend mode="normal" in="SourceGraphic" in2="effect1_dropShadow_1136_6028" result="shape"/>
</filter>
<filter id="filter17_f_1136_6028" x="58.9605" y="91.4859" width="51.0041" height="31.2626" filterUnits="userSpaceOnUse" color-interpolation-filters="sRGB">
<feFlood flood-opacity="0" result="BackgroundImageFix"/>
<feBlend mode="normal" in="SourceGraphic" in2="BackgroundImageFix" result="shape"/>
<feGaussianBlur stdDeviation="2.94919" result="effect1_foregroundBlur_1136_6028"/>
</filter>
<filter id="filter18_f_1136_6028" x="78.5142" y="74.1231" width="31.4018" height="33.6942" filterUnits="userSpaceOnUse" color-interpolation-filters="sRGB">
<feFlood flood-opacity="0" result="BackgroundImageFix"/>
<feBlend mode="normal" in="SourceGraphic" in2="BackgroundImageFix" result="shape"/>
<feGaussianBlur stdDeviation="2.94919" result="effect1_foregroundBlur_1136_6028"/>
</filter>
<filter id="filter19_f_1136_6028" x="45.5831" y="79.5975" width="23.1852" height="23.8769" filterUnits="userSpaceOnUse" color-interpolation-filters="sRGB">
<feFlood flood-opacity="0" result="BackgroundImageFix"/>
<feBlend mode="normal" in="SourceGraphic" in2="BackgroundImageFix" result="shape"/>
<feGaussianBlur stdDeviation="2.94919" result="effect1_foregroundBlur_1136_6028"/>
</filter>
<filter id="filter20_d_1136_6028" x="-0.988037" y="157.96" width="80.4822" height="63.9312" filterUnits="userSpaceOnUse" color-interpolation-filters="sRGB">
<feFlood flood-opacity="0" result="BackgroundImageFix"/>
<feColorMatrix in="SourceAlpha" type="matrix" values="0 0 0 0 0 0 0 0 0 0 0 0 0 0 0 0 0 0 127 0" result="hardAlpha"/>
<feOffset dx="1" dy="-1"/>
<feGaussianBlur stdDeviation="2"/>
<feComposite in2="hardAlpha" operator="out"/>
<feColorMatrix type="matrix" values="0 0 0 0 0.0156863 0 0 0 0 0.0838432 0 0 0 0 0.32549 0 0 0 0.35 0"/>
<feBlend mode="normal" in2="BackgroundImageFix" result="effect1_dropShadow_1136_6028"/>
<feBlend mode="normal" in="SourceGraphic" in2="effect1_dropShadow_1136_6028" result="shape"/>
</filter>
<filter id="filter21_f_1136_6028" x="5.20329" y="160.361" width="69.6811" height="66.2968" filterUnits="userSpaceOnUse" color-interpolation-filters="sRGB">
<feFlood flood-opacity="0" result="BackgroundImageFix"/>
<feBlend mode="normal" in="SourceGraphic" in2="BackgroundImageFix" result="shape"/>
<feGaussianBlur stdDeviation="4.41667" result="effect1_foregroundBlur_1136_6028"/>
</filter>
<filter id="filter22_d_1136_6028" x="146.656" y="165.509" width="126.962" height="94.5352" filterUnits="userSpaceOnUse" color-interpolation-filters="sRGB">
<feFlood flood-opacity="0" result="BackgroundImageFix"/>
<feColorMatrix in="SourceAlpha" type="matrix" values="0 0 0 0 0 0 0 0 0 0 0 0 0 0 0 0 0 0 127 0" result="hardAlpha"/>
<feOffset dx="-2" dy="-2"/>
<feGaussianBlur stdDeviation="2"/>
<feComposite in2="hardAlpha" operator="out"/>
<feColorMatrix type="matrix" values="0 0 0 0 0.0156863 0 0 0 0 0.0838432 0 0 0 0 0.32549 0 0 0 0.35 0"/>
<feBlend mode="normal" in2="BackgroundImageFix" result="effect1_dropShadow_1136_6028"/>
<feBlend mode="normal" in="SourceGraphic" in2="effect1_dropShadow_1136_6028" result="shape"/>
</filter>
<filter id="filter23_f_1136_6028" x="166.777" y="172.728" width="90.2995" height="79.0837" filterUnits="userSpaceOnUse" color-interpolation-filters="sRGB">
<feFlood flood-opacity="0" result="BackgroundImageFix"/>
<feBlend mode="normal" in="SourceGraphic" in2="BackgroundImageFix" result="shape"/>
<feGaussianBlur stdDeviation="4.41667" result="effect1_foregroundBlur_1136_6028"/>
</filter>
<filter id="filter24_f_1136_6028" x="8.95874" y="160.245" width="14.9834" height="13.9683" filterUnits="userSpaceOnUse" color-interpolation-filters="sRGB">
<feFlood flood-opacity="0" result="BackgroundImageFix"/>
<feBlend mode="normal" in="SourceGraphic" in2="BackgroundImageFix" result="shape"/>
<feGaussianBlur stdDeviation="2" result="effect1_foregroundBlur_1136_6028"/>
</filter>
<filter id="filter25_f_1136_6028" x="6.34961" y="159.534" width="11.0852" height="11.0991" filterUnits="userSpaceOnUse" color-interpolation-filters="sRGB">
<feFlood flood-opacity="0" result="BackgroundImageFix"/>
<feBlend mode="normal" in="SourceGraphic" in2="BackgroundImageFix" result="shape"/>
<feGaussianBlur stdDeviation="2" result="effect1_foregroundBlur_1136_6028"/>
</filter>
<linearGradient id="paint0_linear_1136_6028" x1="99.8612" y1="24.8019" x2="163.789" y2="221.061" gradientUnits="userSpaceOnUse">
<stop stop-color="#C0D6F7"/>
<stop offset="1" stop-color="#A3C5F7"/>
</linearGradient>
<linearGradient id="paint1_linear_1136_6028" x1="2.49194" y1="188.819" x2="252.768" y2="202.968" gradientUnits="userSpaceOnUse">
<stop stop-color="#020AC3"/>
<stop offset="0.513542" stop-color="#7928FD"/>
<stop offset="1" stop-color="#1F1BED"/>
</linearGradient>
<linearGradient id="paint2_linear_1136_6028" x1="230.128" y1="218.727" x2="210.529" y2="188.502" gradientUnits="userSpaceOnUse">
<stop stop-color="white"/>
<stop offset="0.343774" stop-color="white" stop-opacity="0"/>
</linearGradient>
<linearGradient id="paint3_linear_1136_6028" x1="58.1446" y1="214.583" x2="22.0914" y2="184.508" gradientUnits="userSpaceOnUse">
<stop stop-color="white"/>
<stop offset="0.515031" stop-color="white"/>
<stop offset="1" stop-color="white" stop-opacity="0.75"/>
</linearGradient>
<linearGradient id="paint4_linear_1136_6028" x1="124.87" y1="140.602" x2="220.905" y2="149.983" gradientUnits="userSpaceOnUse">
<stop stop-color="#60DE25"/>
<stop offset="0.427083" stop-color="#9DF03E"/>
<stop offset="0.536562" stop-color="#A4F240"/>
<stop offset="0.65625" stop-color="#99EF3C"/>
<stop offset="1" stop-color="#65DF26"/>
</linearGradient>
<linearGradient id="paint5_linear_1136_6028" x1="198.807" y1="118.505" x2="176.723" y2="128.545" gradientUnits="userSpaceOnUse">
<stop stop-color="white"/>
<stop offset="0.343774" stop-color="white" stop-opacity="0"/>
</linearGradient>
<linearGradient id="paint6_linear_1136_6028" x1="144.824" y1="173.673" x2="170.045" y2="160.442" gradientUnits="userSpaceOnUse">
<stop stop-color="white" stop-opacity="0.73"/>
<stop offset="0.343774" stop-color="white" stop-opacity="0"/>
</linearGradient>
<linearGradient id="paint7_linear_1136_6028" x1="174.708" y1="125.069" x2="172.879" y2="142.153" gradientUnits="userSpaceOnUse">
<stop stop-color="#1E3401" stop-opacity="0.51"/>
<stop offset="1" stop-color="#1E3401"/>
</linearGradient>
<linearGradient id="paint8_linear_1136_6028" x1="146.555" y1="43.8453" x2="290.554" y2="166.863" gradientUnits="userSpaceOnUse">
<stop stop-color="#82E833"/>
<stop offset="1" stop-color="#A3F243"/>
</linearGradient>
<linearGradient id="paint9_linear_1136_6028" x1="74.2683" y1="92.1883" x2="99.8867" y2="197.647" gradientUnits="userSpaceOnUse">
<stop stop-color="#EA9C26"/>
<stop offset="1" stop-color="#E18B0B"/>
</linearGradient>
<linearGradient id="paint10_linear_1136_6028" x1="68.8946" y1="98.1743" x2="67.5538" y2="155.694" gradientUnits="userSpaceOnUse">
<stop stop-color="#EBA947"/>
<stop offset="1" stop-color="#EEB155"/>
</linearGradient>
<linearGradient id="paint11_linear_1136_6028" x1="120.996" y1="140.591" x2="103.219" y2="107.835" gradientUnits="userSpaceOnUse">
<stop stop-color="white" stop-opacity="0.14"/>
<stop offset="0.721937" stop-color="white"/>
<stop offset="1" stop-color="white" stop-opacity="0"/>
</linearGradient>
<linearGradient id="paint12_linear_1136_6028" x1="100.592" y1="120.57" x2="64.7202" y2="102.83" gradientUnits="userSpaceOnUse">
<stop stop-color="white" stop-opacity="0.112197"/>
<stop offset="0.542638" stop-color="white"/>
<stop offset="1" stop-color="white" stop-opacity="0"/>
</linearGradient>
<linearGradient id="paint13_linear_1136_6028" x1="104.351" y1="105.608" x2="80.544" y2="97.3833" gradientUnits="userSpaceOnUse">
<stop stop-color="white" stop-opacity="0.208754"/>
<stop offset="0.424575" stop-color="white"/>
<stop offset="1" stop-color="white" stop-opacity="0"/>
</linearGradient>
<linearGradient id="paint14_linear_1136_6028" x1="63.9673" y1="92.6359" x2="53.3477" y2="98.523" gradientUnits="userSpaceOnUse">
<stop stop-color="white" stop-opacity="0.208754"/>
<stop offset="0.424575" stop-color="white"/>
<stop offset="1" stop-color="white" stop-opacity="0"/>
</linearGradient>
<linearGradient id="paint15_linear_1136_6028" x1="40.5303" y1="54.3951" x2="184.529" y2="177.413" gradientUnits="userSpaceOnUse">
<stop stop-color="#E99B28"/>
<stop offset="1" stop-color="#ECAC4C"/>
</linearGradient>
<linearGradient id="paint16_linear_1136_6028" x1="1.59008" y1="179.955" x2="66.6533" y2="219.457" gradientUnits="userSpaceOnUse">
<stop stop-color="#788FE2"/>
<stop offset="0.634041" stop-color="#88E5E0"/>
</linearGradient>
<linearGradient id="paint17_linear_1136_6028" x1="49.3967" y1="174.146" x2="-23.8789" y2="212.16" gradientUnits="userSpaceOnUse">
<stop stop-color="white"/>
<stop offset="0.546837" stop-color="white"/>
<stop offset="1" stop-color="white" stop-opacity="0"/>
</linearGradient>
<linearGradient id="paint18_linear_1136_6028" x1="259.492" y1="180.498" x2="175.401" y2="270.8" gradientUnits="userSpaceOnUse">
<stop stop-color="#54CFEA"/>
<stop offset="1" stop-color="#698FF1"/>
</linearGradient>
<linearGradient id="paint19_linear_1136_6028" x1="244.978" y1="179.973" x2="171.703" y2="217.988" gradientUnits="userSpaceOnUse">
<stop stop-color="white"/>
<stop offset="0.546837" stop-color="white"/>
<stop offset="1" stop-color="white" stop-opacity="0"/>
</linearGradient>
<clipPath id="clip0_1136_6028">
<rect width="256" height="256" rx="64" fill="white"/>
</clipPath>
<clipPath id="clip1_1136_6028">
<rect width="102.165" height="106.839" fill="white" transform="translate(126.169 87.6523) rotate(4.24786)"/>
</clipPath>
</defs>
</svg>
