<svg width="92" height="65" viewBox="0 0 92 65" fill="none" xmlns="http://www.w3.org/2000/svg">
<path fill-rule="evenodd" clip-rule="evenodd" d="M20.8001 1.64844C23.9555 1.64844 27.0989 2.42546 29.8918 3.89544C39.4008 8.90403 43.0577 20.7017 38.0439 30.1974C34.624 36.6726 27.8907 40.5902 20.7778 40.5902C19.3882 40.5902 17.9849 40.441 16.5884 40.1323C15.8017 39.9573 15.3053 39.1786 15.4788 38.393C15.6523 37.6074 16.4304 37.1151 17.2222 37.2849C24.4863 38.8973 31.9856 35.417 35.4605 28.8372C39.7237 20.7651 36.6148 10.7325 28.5297 6.47521C26.1558 5.22478 23.4832 4.5644 20.7984 4.5644H20.7795C11.6398 4.5644 4.20228 11.9898 4.20228 21.1168C4.19885 23.7754 4.84813 26.4221 6.0797 28.7737L6.45415 29.5044C6.91277 30.3621 7.01411 31.4273 6.71695 32.3912C6.30643 33.4719 5.96461 34.5233 5.68291 35.5696C6.77879 35.2403 8.11686 34.7549 9.08391 34.4033L9.48069 34.2609C10.2313 33.9813 11.0747 34.3775 11.3495 35.1357C11.6243 35.8921 11.231 36.7292 10.4735 37.0019L10.0819 37.1443L10.0153 37.1683L10.0152 37.1684L10.0151 37.1684C8.57518 37.6893 6.63638 38.3907 5.32049 38.6846C5.20712 38.7086 5.08516 38.724 4.97352 38.7206C4.07689 38.7206 3.53067 38.3587 3.23008 38.0534C2.76802 37.5851 2.54816 36.9281 2.57393 36.1014C2.57736 36.007 2.58939 35.9093 2.61172 35.8149C2.95869 34.3398 3.41043 32.8681 3.95665 31.4427C3.99616 31.3038 3.97211 31.0516 3.86046 30.8406L3.48429 30.1116C2.04317 27.3569 1.2788 24.2403 1.28224 21.1151C1.28224 10.3809 10.0286 1.64844 20.7778 1.64844H20.8001ZM9.87254 21.1174C9.87254 19.8396 10.9117 18.8018 12.1914 18.8018C13.4711 18.8018 14.5103 19.8396 14.5103 21.1174C14.5103 22.3936 13.4711 23.4313 12.1914 23.4313C10.9117 23.4313 9.87254 22.3936 9.87254 21.1174ZM23.0977 21.1174C23.0977 19.8413 22.0585 18.8018 20.7788 18.8018C19.4991 18.8018 18.4599 19.8413 18.4599 21.1174C18.4599 22.3936 19.4991 23.433 20.7788 23.433C22.0585 23.433 23.0977 22.3936 23.0977 21.1174ZM29.3672 18.8018C30.6468 18.8018 31.686 19.8413 31.686 21.1174C31.686 22.3936 30.6468 23.433 29.3672 23.433C28.0875 23.433 27.0483 22.3936 27.0483 21.1174C27.0483 19.8413 28.0875 18.8018 29.3672 18.8018Z" fill="#100F16"/>
<path fill-rule="evenodd" clip-rule="evenodd" d="M91.2888 44.65C91.2888 34.3589 83.0516 25.0889 71.6839 25.0889C60.5705 25.0889 52.1572 34.1828 52.1572 44.5913C52.1572 56.6606 62.0184 64.1525 71.723 64.1525C74.9318 64.1525 78.4928 63.2898 81.3494 61.6095C82.3472 61.0012 83.1885 60.5532 84.2647 60.9053L88.217 62.077C89.2148 62.39 90.1148 61.6095 89.8213 60.5532L88.5104 56.1715C88.2952 55.5632 88.3343 54.9196 88.6474 54.4091C90.3301 51.3184 91.2888 47.9363 91.2888 44.65ZM82.4333 45.0541C82.4333 46.3134 81.4084 47.3365 80.1469 47.3365C78.8854 47.3365 77.8605 46.3134 77.8605 45.0541C77.8605 43.7985 78.8854 42.7754 80.1469 42.7754C81.4084 42.7754 82.4333 43.7985 82.4333 45.0541ZM71.2582 47.3365C72.5198 47.3365 73.5446 46.3134 73.5446 45.0541C73.5446 43.7985 72.5198 42.7754 71.2582 42.7754C69.9967 42.7754 68.9718 43.7985 68.9718 45.0541C68.9718 46.3134 69.9967 47.3365 71.2582 47.3365ZM64.656 45.0541C64.656 46.3134 63.6311 47.3365 62.3696 47.3365C61.108 47.3365 60.0832 46.3134 60.0832 45.0541C60.0832 43.7985 61.108 42.7754 62.3696 42.7754C63.6311 42.7754 64.656 43.7985 64.656 45.0541Z" fill="#100F16"/>
</svg>
