<svg width="16" height="16" viewBox="0 0 16 16" fill="none" xmlns="http://www.w3.org/2000/svg">
<path fill-rule="evenodd" clip-rule="evenodd" d="M13.7613 4.21934C13.9017 4.35996 13.9806 4.55059 13.9806 4.74934C13.9806 4.94809 13.9017 5.13871 13.7613 5.27934L6.5113 12.5293C6.37067 12.6697 6.18005 12.7486 5.9813 12.7486C5.78255 12.7486 5.59192 12.6697 5.4513 12.5293L2.2013 9.27934C2.06882 9.13716 1.9967 8.94912 2.00012 8.75481C2.00355 8.56051 2.08226 8.37513 2.21968 8.23771C2.35709 8.1003 2.54248 8.02159 2.73678 8.01816C2.93108 8.01473 3.11912 8.08686 3.2613 8.21934L5.9813 10.9393L12.7013 4.21934C12.8419 4.07889 13.0325 4 13.2313 4C13.43 4 13.6207 4.07889 13.7613 4.21934Z" fill="black"/>
</svg>
