<svg width="100" height="72" viewBox="0 0 100 72" fill="none" xmlns="http://www.w3.org/2000/svg">
<path fill-rule="evenodd" clip-rule="evenodd" d="M24.0135 4C27.249 4 30.4721 4.79813 33.336 6.30806C43.0864 11.4528 46.8362 23.571 41.695 33.3248C38.1883 39.9759 31.2841 44 23.9906 44C22.5657 44 21.1267 43.8467 19.6948 43.5296C18.8882 43.3499 18.3791 42.55 18.557 41.743C18.7349 40.9361 19.5328 40.4304 20.3447 40.6049C27.7932 42.261 35.483 38.6862 39.0461 31.9276C43.4176 23.6362 40.2296 13.3309 31.9393 8.95793C29.5052 7.67352 26.7646 6.9952 24.0117 6.9952H23.9924C14.6206 6.9952 6.9942 14.6224 6.9942 23.9974C6.99067 26.7283 7.65644 29.4469 8.91928 31.8624L9.30324 32.613C9.7735 33.4939 9.87742 34.588 9.57272 35.5782C9.15177 36.6882 8.80127 37.7682 8.51242 38.843C9.63612 38.5047 11.0082 38.0061 11.9998 37.6449L12.4066 37.4987C13.1763 37.2115 14.0411 37.6185 14.3229 38.3972C14.6047 39.1742 14.2014 40.034 13.4246 40.3141L13.0231 40.4604L12.9547 40.4851C11.4782 41.0202 9.49014 41.7407 8.14079 42.0425C8.02455 42.0672 7.8995 42.0831 7.78501 42.0795C6.86562 42.0795 6.30553 41.7078 5.99731 41.3942C5.52352 40.9132 5.29808 40.2384 5.3245 39.3892C5.32802 39.2923 5.34035 39.1918 5.36325 39.0949C5.71903 37.5797 6.18224 36.068 6.74233 34.6039C6.78284 34.4612 6.75818 34.2022 6.6437 33.9855L6.25798 33.2367C4.78026 30.4071 3.99649 27.2057 4.00001 23.9956C4.00001 12.9697 12.9685 4 23.9906 4H24.0135ZM12.8071 23.9982C12.8071 22.6856 13.8727 21.6196 15.1849 21.6196C16.497 21.6196 17.5626 22.6856 17.5626 23.9982C17.5626 25.309 16.497 26.3749 15.1849 26.3749C13.8727 26.3749 12.8071 25.309 12.8071 23.9982ZM26.3692 23.9977C26.3692 22.6868 25.3037 21.6191 23.9915 21.6191C22.6793 21.6191 21.6138 22.6868 21.6138 23.9977C21.6138 25.3085 22.6793 26.3762 23.9915 26.3762C25.3037 26.3762 26.3692 25.3085 26.3692 23.9977ZM32.7976 21.6191C34.1098 21.6191 35.1754 22.6868 35.1754 23.9977C35.1754 25.3085 34.1098 26.3762 32.7976 26.3762C31.4855 26.3762 30.4199 25.3085 30.4199 23.9977C30.4199 22.6868 31.4855 21.6191 32.7976 21.6191Z" fill="url(#paint0_linear_325_4526)"/>
<path fill-rule="evenodd" clip-rule="evenodd" d="M75.96 28C87.58 28 96 37.4922 96 48.03C96 51.3951 95.02 54.8583 93.3 58.023C92.98 58.5458 92.94 59.2048 93.16 59.8277L94.5 64.3145C94.8 65.3961 93.88 66.1953 92.86 65.8748L88.82 64.675C87.72 64.3145 86.86 64.7732 85.84 65.3961C82.92 67.1167 79.28 68 76 68C66.08 68 56 60.3285 56 47.97C56 37.312 64.6 28 75.96 28Z" fill="url(#paint1_linear_325_4526)"/>
<path fill-rule="evenodd" clip-rule="evenodd" d="M84.6091 50.7818C85.8987 50.7818 86.9463 49.7342 86.9463 48.4447C86.9463 47.1589 85.8987 46.1113 84.6091 46.1113C83.3196 46.1113 82.272 47.1589 82.272 48.4447C82.272 49.7342 83.3196 50.7818 84.6091 50.7818ZM75.5232 50.7818C76.8127 50.7818 77.8604 49.7342 77.8604 48.4447C77.8604 47.1589 76.8127 46.1113 75.5232 46.1113C74.2337 46.1113 73.1861 47.1589 73.1861 48.4447C73.1861 49.7342 74.2337 50.7818 75.5232 50.7818ZM68.7749 48.4447C68.7749 49.7342 67.7273 50.7818 66.4378 50.7818C65.1482 50.7818 64.1006 49.7342 64.1006 48.4447C64.1006 47.1589 65.1482 46.1113 66.4378 46.1113C67.7273 46.1113 68.7749 47.1589 68.7749 48.4447Z" fill="url(#paint2_linear_325_4526)"/>
<defs>
<linearGradient id="paint0_linear_325_4526" x1="5.69444" y1="7.8938" x2="41.3401" y2="26.851" gradientUnits="userSpaceOnUse">
<stop stop-color="#EEEEFF"/>
<stop offset="0.244792" stop-color="#E4F3FF"/>
<stop offset="1" stop-color="#F7EBFF"/>
</linearGradient>
<linearGradient id="paint1_linear_325_4526" x1="94.3056" y1="31.8938" x2="58.6599" y2="50.851" gradientUnits="userSpaceOnUse">
<stop stop-color="#EEEEFF"/>
<stop offset="0.244792" stop-color="#E4F3FF"/>
<stop offset="1" stop-color="#F7EBFF"/>
</linearGradient>
<linearGradient id="paint2_linear_325_4526" x1="85.9785" y1="46.566" x2="82.6162" y2="55.313" gradientUnits="userSpaceOnUse">
<stop stop-color="#27272A"/>
<stop offset="0.244792" stop-color="#1F252A"/>
<stop offset="1" stop-color="#110619"/>
</linearGradient>
</defs>
</svg>
