<svg width="84" height="72" viewBox="0 0 84 72" fill="none" xmlns="http://www.w3.org/2000/svg">
<path d="M47.9663 19.3517C47.7852 17.8927 47.5965 16.3789 47.1324 14.8683C45.8683 11.2546 42.3667 9.00003 38.6123 9.00003C36.5181 8.99359 33.8692 10.0693 32.3674 11.158L19.9192 19.8509H13.4027C8.60683 19.8509 4.7505 22.9332 4.02225 27.3811C3.40342 31.6519 3.25249 39.7136 4.02225 44.4127C4.69012 49.1119 8.37288 52.1491 13.4027 52.1491H19.9192L32.6089 60.9708C33.9107 61.9145 36.2087 62.9967 38.3217 62.9967C38.4576 62.9999 38.5783 62.9999 38.699 62.9999C42.5252 62.9999 45.8948 60.6616 47.1588 57.0576C47.638 55.5245 47.8041 54.088 47.9663 52.6998L48.1361 51.3245C48.7851 46.8637 48.7851 25.1072 48.1361 20.6786L47.9663 19.3517Z" fill="url(#paint0_linear_325_4534)"/>
<path opacity="0.4" d="M72.5195 11.8056C71.9837 11.0165 70.5649 11.3322 70.5649 12.2469C71.5837 27.6358 71.5309 43.4983 70.5649 59.7569C70.5649 60.6683 71.9837 60.9872 72.5195 60.1949C77.0362 53.5568 80.5001 45.1892 80.5001 36.0002C80.5001 26.8113 77.0362 18.4469 72.5195 11.8056" fill="url(#paint1_linear_325_4534)"/>
<path opacity="0.4" d="M55.4478 17.4737C56.2402 29.4808 56.1986 41.8487 55.4478 54.529C55.4478 55.2408 56.5533 55.4888 56.9722 54.8704C60.4927 49.6913 63.1982 43.1692 63.1982 35.9997C63.1982 28.8334 60.4927 22.3081 56.9722 17.1323C56.5533 16.5139 55.4478 16.7587 55.4478 17.4737Z" fill="url(#paint2_linear_325_4534)"/>
<defs>
<linearGradient id="paint0_linear_325_4534" x1="5.41146" y1="14.2566" x2="48.4883" y2="33.3999" gradientUnits="userSpaceOnUse">
<stop stop-color="#EEEEFF"/>
<stop offset="0.244792" stop-color="#E4F3FF"/>
<stop offset="1" stop-color="#F7EBFF"/>
</linearGradient>
<linearGradient id="paint1_linear_325_4534" x1="70.9858" y1="16.1545" x2="82.2145" y2="17.3582" gradientUnits="userSpaceOnUse">
<stop stop-color="#EEEEFF"/>
<stop offset="0.244792" stop-color="#E4F3FF"/>
<stop offset="1" stop-color="#F7EBFF"/>
</linearGradient>
<linearGradient id="paint2_linear_325_4534" x1="55.7761" y1="20.5216" x2="64.5355" y2="21.4607" gradientUnits="userSpaceOnUse">
<stop stop-color="#EEEEFF"/>
<stop offset="0.244792" stop-color="#E4F3FF"/>
<stop offset="1" stop-color="#F7EBFF"/>
</linearGradient>
</defs>
</svg>
