<svg width="16" height="16" viewBox="0 0 16 16" fill="none" xmlns="http://www.w3.org/2000/svg">
<path fill-rule="evenodd" clip-rule="evenodd" d="M9.00996 8.00009L12.7905 4.21944C13.0698 3.94016 13.0698 3.48874 12.7905 3.20946C12.5113 2.93018 12.0599 2.93018 11.7806 3.20946L8 6.99011L4.21942 3.20946C3.94015 2.93018 3.48873 2.93018 3.20946 3.20946C2.93018 3.48874 2.93018 3.94016 3.20946 4.21944L6.99004 8.00009L3.20946 11.7807C2.93018 12.06 2.93018 12.5114 3.20946 12.7907C3.34874 12.93 3.53159 13 3.71444 13C3.89729 13 4.08014 12.93 4.21942 12.7907L8 9.01007L11.7806 12.7907C11.9199 12.93 12.1027 13 12.2856 13C12.4684 13 12.6513 12.93 12.7905 12.7907C13.0698 12.5114 13.0698 12.06 12.7905 11.7807L9.00996 8.00009Z" fill="black"/>
</svg>
