<svg width="20" height="20" viewBox="0 0 20 20" fill="none" xmlns="http://www.w3.org/2000/svg">
<path fill-rule="evenodd" clip-rule="evenodd" d="M11.5153 3.88865C10.6197 3.14822 9.37989 3.14822 8.48436 3.88865L3.99599 7.59968C3.5867 7.93808 3.33316 8.4727 3.33316 9.05522V15.7282C3.33316 16.2952 3.75352 16.6666 4.1665 16.6666H5.83316C6.29339 16.6666 6.66649 16.2935 6.66649 15.8333V13.0706C6.66649 11.6806 7.73851 10.4656 9.16648 10.4656H10.8331C12.2611 10.4656 13.3331 11.6806 13.3331 13.0706V15.8333C13.3331 16.2935 13.7062 16.6666 14.1665 16.6666H15.8331C16.2461 16.6666 16.6665 16.2952 16.6665 15.7282V9.05522C16.6665 8.4727 16.4129 7.93808 16.0036 7.59968L11.5153 3.88865ZM12.5773 2.60418L17.0656 6.31521C17.8743 6.9838 18.3331 7.99752 18.3331 9.05522V15.7282C18.3331 17.1182 17.2611 18.3333 15.8331 18.3333H14.1665C12.7858 18.3333 11.6665 17.214 11.6665 15.8333V13.0706C11.6665 12.5036 11.2461 12.1322 10.8331 12.1322H9.16648C8.7535 12.1322 8.33315 12.5036 8.33315 13.0706V15.8333C8.33315 17.214 7.21386 18.3333 5.83316 18.3333H4.1665C2.73853 18.3333 1.6665 17.1182 1.6665 15.7282V9.05522C1.6665 7.99752 2.12533 6.9838 2.93397 6.3152L7.42234 2.60418C8.9342 1.35416 11.0654 1.35416 12.5773 2.60418Z" fill="black"/>
</svg>
