<svg width="16" height="16" viewBox="0 0 16 16" fill="none" xmlns="http://www.w3.org/2000/svg">
<path fill-rule="evenodd" clip-rule="evenodd" d="M8.00016 1.3335C11.6821 1.3335 14.6668 4.31826 14.6668 8.00016C14.6668 11.6821 11.6821 14.6668 8.00016 14.6668C4.31826 14.6668 1.3335 11.6821 1.3335 8.00016C1.3335 4.31826 4.31826 1.3335 8.00016 1.3335ZM8.00016 2.66683C5.05464 2.66683 2.66683 5.05464 2.66683 8.00016C2.66683 10.9457 5.05464 13.3335 8.00016 13.3335C10.9457 13.3335 13.3335 10.9457 13.3335 8.00016C13.3335 5.05464 10.9457 2.66683 8.00016 2.66683ZM8.00016 6.66683C8.36835 6.66683 8.66683 6.96531 8.66683 7.3335V11.3335C8.66683 11.7017 8.36835 12.0002 8.00016 12.0002C7.63197 12.0002 7.3335 11.7017 7.3335 11.3335V7.3335C7.3335 6.96531 7.63197 6.66683 8.00016 6.66683ZM8.00016 4.00016C8.36835 4.00016 8.66683 4.29864 8.66683 4.66683C8.66683 5.03502 8.36835 5.3335 8.00016 5.3335C7.63197 5.3335 7.3335 5.03502 7.3335 4.66683C7.3335 4.29864 7.63197 4.00016 8.00016 4.00016Z" fill="black"/>
</svg>
