<svg width="24" height="24" viewBox="0 0 24 24" fill="none" xmlns="http://www.w3.org/2000/svg">
<path d="M9.75 6C9.75 3.79086 11.5409 2 13.75 2H18.25C20.4591 2 22.25 3.79086 22.25 6V18C22.25 20.2091 20.4591 22 18.25 22H13.75C11.5409 22 9.75 20.2091 9.75 18V17C9.75 16 9.75 15.5 10.75 15.5C11.75 15.5 11.75 16 11.75 17V18C11.75 19.1046 12.6454 20 13.75 20H18.25C19.3546 20 20.25 19.1046 20.25 18V6C20.25 4.89543 19.3546 4 18.25 4H13.75C12.6454 4 11.75 4.89543 11.75 6V7C11.75 8 11.75 8.5 10.75 8.5C9.75 8.5 9.75 8 9.75 7V6Z" fill="black"/>
<path fill-rule="evenodd" clip-rule="evenodd" d="M2.04289 12.7071C1.65237 12.3166 1.65237 11.6834 2.04289 11.2929L6.04289 7.29289C6.43342 6.90237 7.06658 6.90237 7.45711 7.29289C7.84763 7.68342 7.84763 8.31658 7.45711 8.70711L4.16421 12L7.45711 15.2929C7.84763 15.6834 7.84763 16.3166 7.45711 16.7071C7.06658 17.0976 6.43342 17.0976 6.04289 16.7071L2.04289 12.7071Z" fill="black"/>
<path fill-rule="evenodd" clip-rule="evenodd" d="M1.75 12C1.75 11.4477 2.19772 11 2.75 11H14.75C15.3023 11 15.75 11.4477 15.75 12C15.75 12.5523 15.3023 13 14.75 13H2.75C2.19772 13 1.75 12.5523 1.75 12Z" fill="black"/>
</svg>
