<svg width="20" height="20" viewBox="0 0 20 20" fill="none" xmlns="http://www.w3.org/2000/svg">
<path fill-rule="evenodd" clip-rule="evenodd" d="M9.9999 3.33324C8.6192 3.33324 7.49991 4.45253 7.49991 5.83324C7.49991 7.21394 8.6192 8.33323 9.9999 8.33323C11.3806 8.33323 12.4999 7.21394 12.4999 5.83324C12.4999 4.45253 11.3806 3.33324 9.9999 3.33324ZM5.83325 5.83324C5.83325 3.53206 7.69873 1.66658 9.9999 1.66658C12.3011 1.66658 14.1666 3.53206 14.1666 5.83324C14.1666 8.13441 12.3011 9.99989 9.9999 9.99989C7.69873 9.99989 5.83325 8.13441 5.83325 5.83324Z" fill="black"/>
<path fill-rule="evenodd" clip-rule="evenodd" d="M10.0001 12.4999C7.1314 12.4999 5.62338 13.5164 4.87107 14.7479C4.60925 15.1765 4.6751 15.5808 4.99474 15.9522C5.34343 16.3574 5.97394 16.6665 6.66678 16.6665H13.3334C14.0263 16.6665 14.6568 16.3574 15.0055 15.9522C15.3251 15.5808 15.391 15.1765 15.1291 14.7479C14.3768 13.5164 12.8688 12.4999 10.0001 12.4999ZM3.44878 13.8791C4.5732 12.0384 6.69748 10.8332 10.0001 10.8332C13.3027 10.8332 15.427 12.0384 16.5514 13.8791C17.2493 15.0215 16.9822 16.2104 16.2687 17.0394C15.5843 17.8347 14.4815 18.3332 13.3334 18.3332H6.66678C5.51868 18.3332 4.41592 17.8347 3.73149 17.0394C3.01802 16.2104 2.75091 15.0215 3.44878 13.8791Z" fill="black"/>
</svg>
