<svg width="24" height="24" viewBox="0 0 24 24" fill="none" xmlns="http://www.w3.org/2000/svg">
<path d="M9.43713 13.4595C9.43713 12.991 9.59029 12.6036 9.89659 12.2973C10.2029 11.973 10.5903 11.8108 11.0588 11.8108C11.7975 11.8108 12.4642 11.7027 13.0588 11.4865C13.6533 11.2523 14.1218 10.8829 14.4642 10.3784C14.8245 9.87387 15.0047 9.20721 15.0047 8.37838C15.0047 7.76577 14.8515 7.22522 14.5452 6.75676C14.257 6.28829 13.8515 5.91892 13.329 5.64865C12.8245 5.37838 12.2479 5.24324 11.5993 5.24324C11.0948 5.24324 10.6173 5.33333 10.1669 5.51351C9.73443 5.69369 9.33803 5.93694 8.97767 6.24324C8.68939 6.4955 8.33803 6.68468 7.92362 6.81081C7.52722 6.91892 7.12182 6.81982 6.7074 6.51351C6.27497 6.18919 6.04074 5.8018 6.0047 5.35135C5.96866 4.9009 6.13984 4.48649 6.51821 4.10811C7.16686 3.44144 7.92362 2.92793 8.78848 2.56757C9.67137 2.18919 10.6083 2 11.5993 2C12.8425 2 13.9597 2.28829 14.9506 2.86487C15.9597 3.42342 16.7615 4.18018 17.3561 5.13514C17.9506 6.09009 18.2479 7.17117 18.2479 8.37838C18.2479 9.27928 18.1128 10.0811 17.8425 10.7838C17.5723 11.4685 17.1849 12.0631 16.6804 12.5676C16.1939 13.0541 15.6173 13.4505 14.9506 13.7568C14.302 14.045 13.5903 14.2523 12.8155 14.3784C12.7795 14.3964 12.7434 14.4144 12.7074 14.4324C12.6894 14.4504 12.6804 14.4775 12.6804 14.5135V15.5135C12.6804 15.982 12.5272 16.3784 12.2209 16.7027C11.9146 17.009 11.5272 17.1622 11.0588 17.1622C10.5903 17.1622 10.2029 17.009 9.89659 16.7027C9.59029 16.3784 9.43713 15.982 9.43713 15.5135V13.4595ZM10.9236 22C10.4011 22 9.99569 21.8649 9.7074 21.5946C9.43713 21.3063 9.302 20.9009 9.302 20.3784V19.9189C9.302 19.3964 9.43713 19 9.7074 18.7297C9.99569 18.4414 10.4011 18.2973 10.9236 18.2973H11.275C11.7975 18.2973 12.1939 18.4414 12.4642 18.7297C12.7524 19 12.8966 19.3964 12.8966 19.9189V20.3784C12.8966 20.9009 12.7524 21.3063 12.4642 21.5946C12.1939 21.8649 11.7975 22 11.275 22H10.9236Z" fill="black"/>
</svg>
