<svg width="24" height="24" viewBox="0 0 24 24" fill="none" xmlns="http://www.w3.org/2000/svg">
<path fill-rule="evenodd" clip-rule="evenodd" d="M17.2802 3.33996C16.1701 3.33996 15.2703 4.23984 15.2703 5.3499C15.2703 6.45995 16.1701 7.35983 17.2802 7.35983C18.3903 7.35983 19.2901 6.45995 19.2901 5.3499C19.2901 4.23984 18.3903 3.33996 17.2802 3.33996ZM13.9303 5.3499C13.9303 3.4998 15.4301 2 17.2802 2C19.1303 2 20.6301 3.4998 20.6301 5.3499C20.6301 7.19999 19.1303 8.69979 17.2802 8.69979C15.4301 8.69979 13.9303 7.19999 13.9303 5.3499Z" fill="black"/>
<path fill-rule="evenodd" clip-rule="evenodd" d="M17.2802 14.0596C15.3179 14.0596 14.1545 13.4659 13.485 12.7001C13.281 12.4667 13.2278 12.2616 13.234 12.0933C13.2406 11.9138 13.3182 11.7059 13.4929 11.493C13.8518 11.0557 14.5341 10.7097 15.2702 10.7097H19.2901C20.0262 10.7097 20.7085 11.0557 21.0674 11.493C21.2421 11.7059 21.3197 11.9138 21.3263 12.0933C21.3325 12.2616 21.2793 12.4667 21.0753 12.7001C20.4059 13.4659 19.2424 14.0596 17.2802 14.0596ZM12.4761 13.582C13.4627 14.7106 15.0379 15.3996 17.2802 15.3996C19.5224 15.3996 21.0976 14.7106 22.0842 13.582C22.489 13.1188 22.6853 12.5881 22.6654 12.0443C22.6459 11.5118 22.4219 11.0313 22.1032 10.643C21.4754 9.87795 20.4041 9.36975 19.2901 9.36975H15.2702C14.1562 9.36975 13.0849 9.87795 12.4571 10.643C12.1384 11.0313 11.9144 11.5118 11.8949 12.0443C11.875 12.5881 12.0713 13.1188 12.4761 13.582Z" fill="black"/>
<path fill-rule="evenodd" clip-rule="evenodd" d="M6.71995 8.6733C5.60989 8.6733 4.71001 9.57318 4.71001 10.6832C4.71001 11.7933 5.60989 12.6932 6.71995 12.6932C7.83001 12.6932 8.72989 11.7933 8.72989 10.6832C8.72989 9.57318 7.83001 8.6733 6.71995 8.6733ZM3.37006 10.6832C3.37006 8.83314 4.86986 7.33334 6.71995 7.33334C8.57005 7.33334 10.0698 8.83314 10.0698 10.6832C10.0698 12.5333 8.57005 14.0331 6.71995 14.0331C4.86986 14.0331 3.37006 12.5333 3.37006 10.6832Z" fill="black"/>
<path fill-rule="evenodd" clip-rule="evenodd" d="M6.71992 19.393C4.75764 19.393 3.59421 18.7993 2.92474 18.0334C2.72075 17.8001 2.66759 17.595 2.67375 17.4267C2.68033 17.2471 2.75795 17.0393 2.93267 16.8264C3.29156 16.389 3.97389 16.0431 4.70998 16.0431H8.72985C9.46594 16.0431 10.1483 16.389 10.5072 16.8264C10.6819 17.0393 10.7595 17.2471 10.7661 17.4267C10.7722 17.595 10.7191 17.8001 10.5151 18.0334C9.84562 18.7993 8.68219 19.393 6.71992 19.393ZM1.91589 18.9153C2.90247 20.0439 4.47768 20.7329 6.71992 20.7329C8.96216 20.7329 10.5374 20.0439 11.5239 18.9153C11.9288 18.4522 12.1251 17.9214 12.1051 17.3776C12.0856 16.8451 11.8616 16.3646 11.543 15.9764C10.9152 15.2113 9.84386 14.7031 8.72985 14.7031H4.70998C3.59597 14.7031 2.52466 15.2113 1.89684 15.9764C1.5782 16.3646 1.3542 16.8451 1.33469 17.3776C1.31477 17.9214 1.51107 18.4522 1.91589 18.9153Z" fill="black"/>
</svg>
