<svg width="24" height="24" viewBox="0 0 24 24" fill="none" xmlns="http://www.w3.org/2000/svg">
<path fill-rule="evenodd" clip-rule="evenodd" d="M18.6204 2.65271C20.2045 2.2001 21.6691 3.66468 21.2165 5.24882L17.2169 19.2475C16.5502 21.5809 13.4332 22.0192 12.1489 19.9602L9.35147 15.4754C9.10942 15.0874 8.78184 14.7598 8.39379 14.5177L3.90903 11.7203C1.84999 10.436 2.28829 7.31902 4.62169 6.65233L18.6204 2.65271ZM19.2225 4.57327C19.2122 4.57043 19.1968 4.56806 19.1698 4.57576L5.17114 8.57538C4.50445 8.76586 4.37922 9.65642 4.96752 10.0234L9.45228 12.8208C10.099 13.2242 10.645 13.7702 11.0484 14.4169L13.8458 18.9017C14.2128 19.49 15.1033 19.3648 15.2938 18.6981L19.2935 4.69938C19.3011 4.67244 19.2988 4.65696 19.2959 4.64675C19.2922 4.63336 19.2835 4.61669 19.268 4.6012C19.2525 4.5857 19.2358 4.57701 19.2225 4.57327Z" fill="black"/>
<path fill-rule="evenodd" clip-rule="evenodd" d="M14.435 9.43449C14.8255 9.82502 14.8255 10.4582 14.435 10.8487L10.8995 14.3842C10.509 14.7748 9.8758 14.7748 9.48528 14.3842C9.09475 13.9937 9.09475 13.3606 9.48528 12.97L13.0208 9.43449C13.4113 9.04397 14.0445 9.04397 14.435 9.43449Z" fill="black"/>
</svg>
