<svg width="20" height="20" viewBox="0 0 20 20" fill="none" xmlns="http://www.w3.org/2000/svg">
<path fill-rule="evenodd" clip-rule="evenodd" d="M10.0001 8.33315C9.0796 8.33315 8.33341 9.07934 8.33341 9.99981C8.33341 10.9203 9.0796 11.6665 10.0001 11.6665C10.9205 11.6665 11.6667 10.9203 11.6667 9.99981C11.6667 9.07934 10.9205 8.33315 10.0001 8.33315ZM6.66675 9.99981C6.66675 8.15887 8.15913 6.66649 10.0001 6.66649C11.841 6.66649 13.3334 8.15887 13.3334 9.99981C13.3334 11.8408 11.841 13.3331 10.0001 13.3331C8.15913 13.3331 6.66675 11.8408 6.66675 9.99981Z" fill="black"/>
<path fill-rule="evenodd" clip-rule="evenodd" d="M7.27461 3.78403C7.27461 2.61455 8.22266 1.66651 9.39214 1.66651H10.6077C11.7772 1.66651 12.7252 2.61455 12.7252 3.78403C12.7252 3.95352 12.8421 4.17964 13.1214 4.33134C13.2074 4.37803 13.2922 4.42657 13.3757 4.47693C13.6543 4.64488 13.9158 4.6341 14.0694 4.54624C15.0892 3.96272 16.3888 4.31093 16.9802 5.32618L17.5673 6.33379C18.1598 7.35098 17.8101 8.6562 16.7883 9.24083C16.6402 9.3256 16.5009 9.54118 16.5077 9.862C16.5087 9.90783 16.5091 9.95377 16.5091 9.99981C16.5091 10.0459 16.5087 10.0918 16.5077 10.1377C16.5009 10.4585 16.6402 10.674 16.7883 10.7588C17.8101 11.3434 18.1598 12.6486 17.5672 13.6658L16.9802 14.6735C16.3887 15.6887 15.0892 16.0369 14.0693 15.4534C13.9158 15.3655 13.6543 15.3548 13.3757 15.5227C13.2921 15.573 13.2074 15.6216 13.1214 15.6683C12.8421 15.82 12.7252 16.0461 12.7252 16.2156C12.7252 17.3851 11.7772 18.3331 10.6077 18.3331H9.39214C8.22266 18.3331 7.27461 17.3851 7.27461 16.2156C7.27461 16.0461 7.15773 15.82 6.8784 15.6683C6.79244 15.6216 6.70766 15.573 6.62413 15.5227C6.34554 15.3547 6.08402 15.3655 5.93047 15.4534C4.91065 16.0369 3.61108 15.6887 3.01963 14.6734L2.43259 13.6658C1.84 12.6486 2.18972 11.3434 3.2115 10.7588C3.35963 10.674 3.49892 10.4585 3.49213 10.1377C3.49116 10.0918 3.49067 10.0459 3.49067 9.99981C3.49067 9.95377 3.49116 9.90784 3.49213 9.86201C3.49892 9.54119 3.35963 9.32561 3.21148 9.24084C2.18969 8.6562 1.83998 7.35099 2.43257 6.3338L3.01958 5.32618C3.61104 4.31094 4.91062 3.96273 5.93044 4.54625C6.084 4.63411 6.34553 4.64488 6.62413 4.47694C6.70766 4.42658 6.79244 4.37803 6.8784 4.33134C7.15773 4.17964 7.27461 3.95352 7.27461 3.78403ZM9.39214 3.33317C9.14313 3.33317 8.94127 3.53503 8.94127 3.78403C8.94127 4.70573 8.35338 5.42688 7.67382 5.79595C7.60986 5.83069 7.54676 5.86682 7.48459 5.9043C6.8217 6.30391 5.90336 6.45094 5.10274 5.99285C4.87744 5.86394 4.59035 5.94087 4.45968 6.16515L3.87267 7.17277C3.74598 7.39022 3.82075 7.66925 4.03919 7.79424C4.84111 8.25307 5.17478 9.12372 5.15842 9.89725C5.1577 9.93134 5.15734 9.96552 5.15734 9.99981C5.15734 10.0341 5.1577 10.0683 5.15842 10.1024C5.17478 10.8759 4.84112 11.7466 4.0392 12.2054C3.82077 12.3304 3.74602 12.6094 3.87269 12.8268L4.45973 13.8345C4.59039 14.0588 4.87748 14.1357 5.10277 14.0068C5.90338 13.5487 6.82171 13.6957 7.48459 14.0953C7.54677 14.1328 7.60986 14.1689 7.67382 14.2037C8.35338 14.5727 8.94127 15.2939 8.94127 16.2156C8.94127 16.4646 9.14313 16.6665 9.39214 16.6665H10.6077C10.8567 16.6665 11.0585 16.4646 11.0585 16.2156C11.0585 15.2939 11.6464 14.5727 12.326 14.2037C12.39 14.1689 12.453 14.1328 12.5152 14.0953C13.1781 13.6957 14.0964 13.5487 14.897 14.0068C15.1223 14.1357 15.4094 14.0588 15.5401 13.8345L16.1271 12.8268C16.2538 12.6094 16.179 12.3304 15.9606 12.2054C15.1587 11.7466 14.825 10.8759 14.8414 10.1024C14.8421 10.0683 14.8425 10.0341 14.8425 9.99981C14.8425 9.96552 14.8421 9.93133 14.8414 9.89724C14.825 9.12371 15.1587 8.25306 15.9606 7.79423C16.1791 7.66924 16.2538 7.39022 16.1272 7.17276L15.5401 6.16515C15.4095 5.94086 15.1224 5.86394 14.8971 5.99284C14.0965 6.45094 13.1781 6.3039 12.5152 5.90429C12.453 5.86681 12.39 5.83068 12.326 5.79595C11.6464 5.42688 11.0585 4.70573 11.0585 3.78403C11.0585 3.53503 10.8567 3.33317 10.6077 3.33317H9.39214Z" fill="black"/>
</svg>
