<svg width="98" height="65" viewBox="0 0 98 65" fill="none" xmlns="http://www.w3.org/2000/svg">
<path d="M55.6907 13.3836C55.4804 11.6852 55.2614 9.92316 54.7226 8.16484C53.255 3.95837 49.1896 1.33402 44.8307 1.33402C42.3993 1.32652 39.324 2.57871 37.5804 3.8459L23.1281 13.9647H15.5625C9.99445 13.9647 5.51725 17.5525 4.67176 22.73C3.9533 27.7013 3.77807 37.0852 4.67176 42.5551C5.44716 48.025 9.72284 51.5604 15.5625 51.5604H23.1281L37.8608 61.8291C39.3722 62.9276 42.0401 64.1873 44.4934 64.1873C44.6511 64.1911 44.7913 64.1911 44.9314 64.1911C49.3736 64.1911 53.2857 61.4692 54.7532 57.274C55.3096 55.4895 55.5023 53.8174 55.6907 52.2015L55.8879 50.6007C56.6414 45.4082 56.6414 20.0832 55.8879 14.9282L55.6907 13.3836Z" fill="#100F16"/>
<path opacity="0.4" d="M84.198 4.60096C83.5759 3.68244 81.9287 4.04985 81.9287 5.11458C83.1115 23.0277 83.0502 41.4919 81.9287 60.4172C81.9287 61.4782 83.5759 61.8494 84.198 60.9271C89.4418 53.2003 93.4634 43.4602 93.4634 32.764C93.4634 22.0679 89.4418 12.3316 84.198 4.60096" fill="#100F16"/>
<path opacity="0.4" d="M64.376 11.197C65.2959 25.1735 65.2478 39.57 64.376 54.3301C64.376 55.1586 65.6596 55.4473 66.1458 54.7275C70.2331 48.699 73.3742 41.1071 73.3742 32.7617C73.3742 24.42 70.2331 16.8243 66.1458 10.7996C65.6596 10.0797 64.376 10.3647 64.376 11.197Z" fill="#100F16"/>
</svg>
